<svg width="21" height="26" viewBox="0 0 21 26" fill="none" xmlns="http://www.w3.org/2000/svg">
<path d="M17.5386 13.7867C17.5748 17.7138 20.9625 19.0207 21 19.0373C20.9714 19.1295 20.4587 20.8997 19.2152 22.7282C18.1403 24.3091 17.0246 25.8841 15.2671 25.9168C13.5402 25.9488 12.985 24.8864 11.0106 24.8864C9.03688 24.8864 8.41992 25.8841 6.78522 25.9488C5.08881 26.0134 3.79701 24.2393 2.71314 22.6643C0.498364 19.4424 -1.19418 13.5601 1.07848 9.5895C2.20749 7.61766 4.22511 6.36901 6.41506 6.33699C8.08089 6.30502 9.65324 7.46466 10.6716 7.46466C11.6893 7.46466 13.6 6.07009 15.6087 6.2749C16.4496 6.31012 18.8101 6.61668 20.3258 8.84903C20.2036 8.92521 17.5093 10.5035 17.5386 13.7867V13.7867ZM14.2931 4.14338C15.1937 3.04644 15.7999 1.5194 15.6345 0C14.3363 0.0524994 12.7665 0.870446 11.8353 1.96678C11.0008 2.93764 10.27 4.49156 10.4672 5.98089C11.9142 6.09354 13.3924 5.24102 14.2931 4.14339" fill="white"/>
</svg>
