<svg width="20" height="20" viewBox="0 0 20 20" fill="none" xmlns="http://www.w3.org/2000/svg">
<g clip-path="url(#clip0)">
<path d="M15.5583 4.1085C14.4667 2.1085 12.325 0.833496 10 0.833496C7.05 0.833496 4.48333 2.89183 3.83333 5.69183C1.68333 5.91683 0 7.72516 0 9.91683C0 12.2585 1.925 14.1668 4.29167 14.1668H5.16667C5.04167 13.7252 4.99167 13.2668 5 12.7918C5.05833 10.1343 7.26667 7.95016 9.925 7.91683H10.0333C11.3417 7.91683 12.575 8.4335 13.525 9.3585C14.475 10.2918 15 11.5502 15 12.8918C15 13.326 14.9417 13.7585 14.825 14.1668H14.8917C15.2417 14.1668 15.5833 14.1335 15.9158 14.0668C18.2833 13.5835 20 11.5002 20 9.1085C20 6.5585 18.075 4.42516 15.5583 4.1085Z" fill="#EB5757"/>
<path d="M11.7 17.6426V18.2426C11.7 18.7509 11.2833 19.1676 10.7675 19.1676H9.23334C8.78334 19.1676 8.30084 18.8342 8.30084 18.0926V17.6426H11.7Z" fill="#607D8B"/>
<path d="M13.7508 12.8926C13.7508 14.0176 13.25 15.0676 12.3758 15.776C12.0258 16.0593 11.8008 16.426 11.7258 16.8093C11.7091 16.9001 11.7008 17.0001 11.7008 17.0926V17.6426H8.30082V17.0093L8.28415 16.8093C8.22582 16.4343 8.01748 16.0843 7.67665 15.8176C6.75165 15.0926 6.22665 14.001 6.25165 12.8176C6.29331 10.8343 7.95081 9.1918 9.94332 9.16763C10.9516 9.14263 11.9183 9.53347 12.6433 10.251C13.3583 10.951 13.7508 11.8918 13.7508 12.8926Z" fill="#FFC107"/>
<path d="M10 17.6426H8.30084V18.0926C8.30084 18.8342 8.78334 19.1676 9.23334 19.1676H10V17.6426Z" fill="#546D79"/>
</g>
<defs>
<clipPath id="clip0">
<rect width="20" height="20" fill="white"/>
</clipPath>
</defs>
</svg>
