<svg width="20" height="20" viewBox="0 0 20 20" fill="none" xmlns="http://www.w3.org/2000/svg">
<g clip-path="url(#clip0)">
<path d="M15.5583 4.10825C14.4667 2.10825 12.325 0.833252 10 0.833252C7.05 0.833252 4.48333 2.89159 3.83333 5.69159C1.68333 5.91659 0 7.72492 0 9.91659C0 12.2583 1.925 14.1666 4.29167 14.1666H5.16667C5.04167 13.7249 4.99167 13.2666 5 12.7916C5.05833 10.1341 7.26667 7.94992 9.925 7.91659H10.0333C11.3417 7.91659 12.575 8.43325 13.525 9.35825C14.475 10.2916 15 11.5499 15 12.8916C15 13.3258 14.9417 13.7583 14.825 14.1666H14.8917C15.2417 14.1666 15.5833 14.1333 15.9158 14.0666C18.2833 13.5833 20 11.4999 20 9.10825C20 6.55825 18.075 4.42492 15.5583 4.10825Z" fill="#1152FD"/>
<path d="M11.7 17.6426V18.2426C11.7 18.7509 11.2833 19.1676 10.7675 19.1676H9.23334C8.78334 19.1676 8.30084 18.8342 8.30084 18.0926V17.6426H11.7Z" fill="#607D8B"/>
<path d="M13.7508 12.8924C13.7508 14.0174 13.25 15.0674 12.3758 15.7757C12.0258 16.0591 11.8008 16.4257 11.7258 16.8091C11.7091 16.8999 11.7008 16.9999 11.7008 17.0924V17.6424H8.30082V17.0091L8.28415 16.8091C8.22582 16.4341 8.01748 16.0841 7.67665 15.8174C6.75165 15.0924 6.22665 14.0007 6.25165 12.8174C6.29331 10.8341 7.95081 9.19156 9.94332 9.16739C10.9516 9.14239 11.9183 9.53322 12.6433 10.2507C13.3583 10.9507 13.7508 11.8916 13.7508 12.8924Z" fill="#FFC107"/>
<path d="M10 17.6426H8.30084V18.0926C8.30084 18.8342 8.78334 19.1676 9.23334 19.1676H10V17.6426Z" fill="#546D79"/>
</g>
<defs>
<clipPath id="clip0">
<rect width="20" height="20" fill="white"/>
</clipPath>
</defs>
</svg>
