<svg width="28" height="18" viewBox="0 0 28 18" fill="none" xmlns="http://www.w3.org/2000/svg">
<path d="M15.3557 17.1598C16.0662 17.1598 16.3567 16.6862 16.3485 16.0923C16.3123 13.8558 17.1815 12.6518 18.7507 14.221C20.4867 15.957 20.846 17.1598 22.9542 17.1598H26.6875C27.6302 17.1598 28.0012 16.8565 28.0012 16.3805C28.0012 15.3737 26.3433 13.5968 24.9387 12.2925C22.9717 10.4667 22.8795 10.4235 24.5735 8.2255C26.6747 5.49666 29.4233 2.00016 26.992 2.00016H22.3475C21.4468 2.00016 21.3815 2.50766 21.0607 3.26366C19.8998 6.00183 17.6937 9.5485 16.856 9.006C15.9798 8.44016 16.3812 6.199 16.4477 2.86816C16.4652 1.9885 16.4605 1.38533 15.1165 1.07266C14.3827 0.903496 13.6687 0.833496 13.006 0.833496C10.3542 0.833496 8.52483 1.94533 9.56433 2.139C11.3972 2.48083 11.221 6.44633 10.794 8.159C10.0497 11.141 7.252 5.79766 6.0865 3.1365C5.80533 2.49716 5.719 2.00016 4.71567 2.00016H0.918167C0.344167 2.00016 0 2.18683 0 2.60216C0 3.3045 3.45333 10.4422 6.75033 14.0005C9.96567 17.4713 13.1437 17.1598 15.3557 17.1598Z" fill="white"/>
</svg>
